<svg width="442" height="437" viewBox="0 0 442 437" fill="none" xmlns="http://www.w3.org/2000/svg">
<path d="M433 189.063L221 43.702L9 189.063V428H433V189.063ZM375.302 89.1845C371.466 78.0683 363.864 68.6428 353.81 62.5398C343.757 56.4368 331.885 54.0405 320.25 55.7657L320.159 55.9147L375.302 89.1845ZM419.787 75.219C412.151 53.5117 397.196 35.1379 377.489 23.2499C357.782 11.3618 334.551 6.70048 311.782 10.0656" fill="#F0EFE7"/>
<path d="M419.787 75.219C412.151 53.5117 397.196 35.1379 377.489 23.2499C357.782 11.3618 334.551 6.70048 311.782 10.0656M433 189.063L221 43.702L9 189.063V428H433V189.063ZM375.302 89.1845C371.466 78.0683 363.864 68.6428 353.81 62.5398C343.757 56.4368 331.885 54.0405 320.25 55.7657L320.159 55.9147L375.302 89.1845Z" stroke="#C0BFB9" stroke-width="16.6667" stroke-linecap="round" stroke-linejoin="round"/>
</svg>
