<svg width="100" height="100" viewBox="0 0 100 100" fill="none" xmlns="http://www.w3.org/2000/svg">
<path d="M34.3748 75H65.6248V81.25H34.3748V75ZM40.6248 87.5H59.3748V93.75H40.6248V87.5ZM49.9998 6.25C41.7118 6.25 33.7632 9.5424 27.9027 15.4029C22.0422 21.2634 18.7498 29.212 18.7498 37.5C18.5385 42.0417 19.4085 46.5686 21.2882 50.7084C23.168 54.8482 26.0038 58.4826 29.5623 61.3125C32.6873 64.2188 34.3748 65.875 34.3748 68.75H40.6248C40.6248 63 37.156 59.7812 33.781 56.6875C30.8603 54.4508 28.5325 51.5321 27.0016 48.187C25.4707 44.8419 24.7834 41.1724 24.9998 37.5C24.9998 30.8696 27.6337 24.5107 32.3221 19.8223C37.0105 15.1339 43.3694 12.5 49.9998 12.5C56.6302 12.5 62.9891 15.1339 67.6775 19.8223C72.3659 24.5107 74.9998 30.8696 74.9998 37.5C75.2126 41.1751 74.5205 44.8463 72.984 48.1917C71.4476 51.537 69.1138 54.4542 66.1873 56.6875C62.8435 59.8125 59.3748 62.9375 59.3748 68.75H65.6248C65.6248 65.875 67.281 64.2188 70.4373 61.2812C73.9934 58.4562 76.8279 54.8272 78.7076 50.6928C80.5874 46.5584 81.4586 42.0368 81.2498 37.5C81.2498 33.3962 80.4415 29.3326 78.871 25.5411C77.3006 21.7497 74.9987 18.3047 72.0969 15.4029C69.195 12.5011 65.7501 10.1992 61.9586 8.62876C58.1672 7.05831 54.1036 6.25 49.9998 6.25Z" fill="#E7F0EC"/>
</svg>
