<svg width="100" height="100" viewBox="0 0 100 100" fill="none" xmlns="http://www.w3.org/2000/svg">
<path d="M12.4997 12.5H87.4997C88.6047 12.5 89.6646 12.939 90.446 13.7204C91.2274 14.5018 91.6663 15.5616 91.6663 16.6667V83.3333C91.6663 84.4384 91.2274 85.4982 90.446 86.2796C89.6646 87.061 88.6047 87.5 87.4997 87.5H12.4997C11.3946 87.5 10.3348 87.061 9.5534 86.2796C8.77199 85.4982 8.33301 84.4384 8.33301 83.3333V16.6667C8.33301 15.5616 8.77199 14.5018 9.5534 13.7204C10.3348 12.939 11.3946 12.5 12.4997 12.5ZM16.6663 20.8333V79.1667H83.333V20.8333H16.6663ZM83.333 50L68.5997 64.7333L62.708 58.8375L71.5497 50L62.708 41.1625L68.5997 35.2667L83.333 50ZM28.4497 50L37.2913 58.8375L31.3997 64.7333L16.6663 50L31.3997 35.2667L37.2913 41.1667L28.4497 50ZM46.8497 70.8333H37.983L53.1497 29.1667H62.0163L46.8497 70.8333Z" fill="#F0EFE7"/>
</svg>
