<svg width="46" height="49" viewBox="0 0 46 49" fill="none" xmlns="http://www.w3.org/2000/svg">
<g clip-path="url(#clip0_101_273)">
<path fill-rule="evenodd" clip-rule="evenodd" d="M22.8779 3.15405C11.6145 3.15405 2.49584 13.1113 2.49584 25.3735C2.49584 34.3773 7.41231 42.1254 14.4885 45.6105C15.2288 45.976 15.9524 45.831 16.5179 45.3655C16.8307 45.0982 17.0827 44.7551 17.2544 44.3629C17.4261 43.9708 17.5128 43.5404 17.5075 43.1054V41.9416L14.9833 41.566C14.9646 41.5632 14.946 41.5598 14.9275 41.5558C13.536 41.2577 12.5966 40.7207 11.9084 39.9469C11.3299 39.2956 10.9764 38.5157 10.6769 37.8542L10.5728 37.6235C10.296 36.9898 9.99369 36.3699 9.66685 35.7656C9.41573 35.3287 9.22041 35.1041 9.02695 34.9632C8.53586 34.6059 8.06337 33.9995 8.06337 33.2421C8.06169 33.0241 8.10422 32.8084 8.18787 32.6106C8.27152 32.4129 8.3942 32.238 8.54702 32.0988C8.83545 31.8481 9.19492 31.7166 9.56268 31.7272C9.97564 31.7272 10.3644 31.866 10.6881 32.0253C11.0192 32.1886 11.3485 32.405 11.6554 32.6296C12.4032 33.1768 13.1398 33.824 13.763 34.6223C14.4122 35.4512 14.8716 35.9779 15.5636 36.0861C16.1329 36.176 16.7132 36.178 17.1653 36.1556C17.2281 35.7627 17.3317 35.3791 17.474 35.0122C16.922 34.8708 16.3774 34.6963 15.8427 34.4896C14.6261 34.0159 13.27 33.2788 12.3585 32.1621C11.3578 30.933 10.7383 29.8366 10.3923 28.5544C10.0556 27.3049 9.99982 25.9513 9.99982 24.2853C9.99982 21.7332 11.0062 19.5833 11.7614 18.4421C11.4713 17.4429 11.2627 16.4173 11.1383 15.3775C11.0558 14.7218 11.0565 14.0567 11.1401 13.4012C11.2331 12.803 11.4656 12.068 12.0777 11.6249C12.6673 11.1941 13.3593 11.2125 13.8988 11.3228C14.4587 11.4391 15.0409 11.6943 15.5767 11.9863C16.4491 12.46 17.3159 13.0929 17.9651 13.6298C19.085 13.2685 21.0661 12.803 22.8574 12.7601H22.8983C24.6916 12.803 26.5834 13.2685 27.6753 13.6278C28.3264 13.0929 29.1914 12.4579 30.0619 11.9863C30.5977 11.6943 31.178 11.4391 31.7398 11.3228C32.2793 11.2125 32.9712 11.1941 33.5628 11.6229C34.1729 12.068 34.4073 12.803 34.4985 13.4012C34.5933 14.0239 34.571 14.7201 34.4985 15.3775C34.3746 16.4172 34.1666 17.4428 33.8772 18.4421C34.6324 19.5854 35.6388 21.7353 35.6388 24.2853C35.6388 25.9513 35.583 27.3049 35.2481 28.5524C34.9003 29.8386 34.2808 30.933 33.28 32.1621C32.3685 33.2788 31.0125 34.0159 29.7959 34.4896C29.1501 34.7387 28.4902 34.9412 27.8204 35.0959C28.0492 35.8554 28.1311 36.47 28.1311 36.8232V43.1319C28.1311 44.0915 28.5384 44.9102 29.1169 45.388C29.6787 45.8555 30.4005 46.0005 31.1408 45.6452C38.2839 42.1907 43.2581 34.4222 43.2581 25.3715C43.2581 13.1113 34.1432 3.15405 22.8779 3.15405ZM18.1828 38.1993C17.6991 38.2748 18.1809 38.1993 18.1809 38.1993H18.1753L18.1605 38.2033L18.1065 38.2115C17.8302 38.2471 17.5529 38.2723 17.275 38.2871C16.7504 38.3136 16.0305 38.3156 15.2921 38.1993C13.8206 37.9706 12.9259 36.8273 12.3474 36.0841L12.2916 36.0147C12.1024 35.7738 11.8992 35.5467 11.6833 35.3348C11.8749 35.7227 12.0739 36.1556 12.2879 36.6211L12.3065 36.6619L12.4013 36.8742C12.7269 37.5847 12.9408 38.0584 13.2961 38.4545C13.6421 38.8424 14.1815 39.2181 15.2716 39.4549L18.6088 39.951C18.8418 39.9856 19.0555 40.1119 19.2102 40.3064C19.3648 40.5009 19.4499 40.7504 19.4496 41.0086V43.1054C19.4496 44.7387 18.752 46.1944 17.6824 47.0764C17.1208 47.5474 16.4528 47.8412 15.7503 47.9261C15.0478 48.011 14.3375 47.8838 13.696 47.5583C5.95392 43.7465 0.555664 35.2593 0.555664 25.3735C0.555664 11.9148 10.5579 1.02051 22.8779 1.02051C35.1979 1.02051 45.2001 11.9148 45.2001 25.3735C45.2001 35.3103 39.733 43.82 31.924 47.5991C31.282 47.9184 30.5729 48.0402 29.8727 47.9514C29.1725 47.8626 28.5075 47.5665 27.9487 47.0948C27.3963 46.628 26.9499 46.0271 26.6446 45.3392C26.3393 44.6513 26.1834 43.8951 26.189 43.1299V36.8211C26.189 36.6782 26.0979 35.8534 25.59 34.7448C25.5199 34.591 25.4846 34.421 25.4871 34.2492C25.4895 34.0773 25.5297 33.9086 25.6042 33.7573C25.6786 33.6061 25.7852 33.4768 25.9149 33.3804C26.0445 33.2839 26.1934 33.2232 26.349 33.2033C26.987 33.1257 28.0622 32.8991 29.1467 32.4765C30.2517 32.0477 31.2431 31.4597 31.8328 30.737C32.709 29.6631 33.1461 28.8382 33.3861 27.946C33.6353 27.0211 33.6986 25.9452 33.6986 24.2853C33.6986 21.9558 32.5825 19.9978 32.0691 19.3669C31.9525 19.2243 31.8731 19.05 31.839 18.8621C31.805 18.6743 31.8176 18.4798 31.8756 18.2991C32.136 17.4947 32.4523 16.2432 32.5732 15.1264C32.6327 14.5649 32.6364 14.0953 32.5843 13.7564C32.5727 13.6325 32.5385 13.5124 32.4839 13.4032C32.3558 13.3789 32.2245 13.3852 32.0988 13.4216C31.7826 13.4869 31.3789 13.6503 30.9213 13.8993C30.0098 14.3934 29.0611 15.1243 28.4733 15.647C28.3437 15.7624 28.1891 15.8391 28.0244 15.8695C27.8598 15.8999 27.6908 15.883 27.5339 15.8205C26.0278 15.2798 24.4612 14.9686 22.8779 14.8957C21.0047 14.9447 18.8431 15.5286 18.1047 15.8205C17.9477 15.883 17.7788 15.8999 17.6141 15.8695C17.4495 15.8391 17.2949 15.7624 17.1653 15.647C16.4051 14.9753 15.5849 14.3898 14.7173 13.8993C14.3447 13.6846 13.9482 13.524 13.5379 13.4216C13.4128 13.3855 13.2822 13.3792 13.1547 13.4032C13.1 13.5124 13.0659 13.6325 13.0542 13.7564C13.0022 14.0953 13.0059 14.5649 13.0654 15.1264C13.1863 16.2432 13.5044 17.4947 13.763 18.2991C13.8802 18.6666 13.8076 19.075 13.5695 19.3669C13.0561 19.9978 11.94 21.9558 11.94 24.2853C11.94 25.9431 12.0032 27.0211 12.2525 27.946C12.4943 28.8382 12.9296 29.661 13.8039 30.737C14.3954 31.4597 15.3851 32.0477 16.4919 32.4765C17.3974 32.8282 18.3347 33.0719 19.2877 33.2033C19.4838 33.2264 19.6688 33.3145 19.8182 33.4558C19.9675 33.5971 20.0741 33.785 20.1238 33.9945C20.1735 34.2039 20.1639 34.425 20.0963 34.6283C20.0287 34.8317 19.9063 35.0076 19.7453 35.1327C19.4384 35.3736 19.2356 35.8064 19.1222 36.3066C19.0636 36.5642 19.0287 36.8275 19.018 37.0927V37.1315C19.0204 37.3903 18.937 37.6413 18.7833 37.8377C18.6297 38.0342 18.4163 38.1626 18.1828 38.1993Z" fill="#3D3D3D"/>
</g>
<defs>
<clipPath id="clip0_101_273">
<rect width="44.6444" height="49" fill="white" transform="translate(0.555664)"/>
</clipPath>
</defs>
</svg>
