<svg width="60" height="60" viewBox="0 0 60 60" fill="none" xmlns="http://www.w3.org/2000/svg">
<path d="M13.84 54.7148C14.2444 54.9252 14.6985 55.0214 15.1535 54.9932C15.6084 54.965 16.0472 54.8135 16.4225 54.5548L48.9225 32.0548C49.2546 31.8247 49.526 31.5176 49.7134 31.1597C49.9009 30.8018 49.9988 30.4038 49.9988 29.9998C49.9988 29.5958 49.9009 29.1978 49.7134 28.8399C49.526 28.482 49.2546 28.1749 48.9225 27.9448L16.4225 5.44482C16.0479 5.18346 15.6086 5.02997 15.1528 5.00109C14.6969 4.9722 14.2418 5.06904 13.8371 5.28103C13.4325 5.49302 13.0938 5.81203 12.858 6.20329C12.6223 6.59454 12.4984 7.04302 12.5 7.49982V52.4998C12.4999 52.9562 12.6248 53.4038 12.861 53.7943C13.0972 54.1847 13.4358 54.5031 13.84 54.7148ZM17.5 12.2723L43.1075 29.9998L17.5 47.7273V12.2723Z" fill="#3D3D3D"/>
</svg>
