<svg width="63" height="63" viewBox="0 0 63 63" fill="none" xmlns="http://www.w3.org/2000/svg">
<path d="M12.8845 36.2217L11.4325 62.6835H6.18973L7.64176 36.2217H12.8845ZM60.0694 36.2217L59.7467 42.1021H54.5039L53.3746 62.6835H48.1318L49.2612 42.1021H44.0184L44.3411 36.2217H60.0694ZM31.5569 30.3413C35.2286 30.3633 38.7592 31.5332 41.7522 33.7196L45.7792 29.4563C41.794 26.2162 36.946 24.4738 31.8795 24.4609C26.8792 24.472 21.9072 26.1953 17.6287 29.4005L21.1926 33.6726C24.3606 31.5172 27.951 30.3631 31.5569 30.3413V30.3413Z" fill="#3D3D3D"/>
<path d="M32.2024 18.5816C38.6563 18.5966 44.8077 20.9362 49.7506 25.2558L53.7221 21.0513C47.8266 15.649 40.3691 12.7113 32.525 12.7012C24.7478 12.7122 17.0363 15.632 10.6111 20.9984L14.1185 25.2029C19.473 20.9182 25.8139 18.5965 32.2024 18.5816V18.5816Z" fill="#3D3D3D"/>
<path d="M32.8478 6.8198C42.0831 6.82139 50.8472 10.3584 57.691 16.8459L61.6623 12.6443C53.903 5.08616 43.8685 0.948586 33.2755 0.939468C22.6825 0.930351 12.1892 5.05026 3.59093 12.5944L7.10109 16.7959C14.5942 10.3432 23.6791 6.82306 32.8478 6.8198V6.8198ZM31.2345 36.2218C28.9014 36.2218 26.5781 36.9978 24.5585 38.4516C22.5388 39.9054 20.9135 41.9718 19.888 44.3894C18.8625 46.8071 18.4829 49.4674 18.7973 52.0339C19.1116 54.6005 20.1057 56.958 21.6539 58.8084C23.2021 60.6587 25.2348 61.9188 27.4951 62.4294C29.7553 62.9399 32.1415 62.6779 34.3519 61.6764C36.5623 60.675 38.4977 58.9792 39.9133 56.8034C41.3289 54.6276 42.1611 52.0695 42.3047 49.4527C42.4972 45.9436 41.4391 42.5783 39.363 40.097C37.2869 37.6158 34.363 36.2218 31.2345 36.2218V36.2218ZM30.1051 56.8032C28.809 56.8032 27.5656 56.3721 26.5322 55.5644C25.4988 54.7567 24.7218 53.6087 24.2995 52.2656C23.8772 50.9225 23.8285 49.4445 24.1596 48.0187C24.4907 46.5928 25.1867 45.2831 26.1597 44.2551C27.1326 43.2271 28.3387 42.5271 29.6255 42.2434C30.9123 41.9598 32.222 42.1054 33.389 42.6617C34.5559 43.2181 35.5278 44.1602 36.1815 45.369C36.8353 46.5778 37.1417 47.9989 37.0619 49.4527C36.9549 51.4022 36.1619 53.2718 34.8572 54.6503C33.5526 56.0288 31.8432 56.8032 30.1051 56.8032V56.8032Z" fill="#3D3D3D"/>
</svg>
