<svg width="60" height="60" viewBox="0 0 60 60" fill="none" xmlns="http://www.w3.org/2000/svg">
<path d="M46.1598 5.28483C45.7561 5.0725 45.3019 4.97491 44.8466 5.00267C44.3912 5.03044 43.9523 5.18251 43.5773 5.44233L11.0773 27.9423C10.7462 28.1734 10.4758 28.481 10.2891 28.839C10.1024 29.197 10.0049 29.5948 10.0049 29.9986C10.0049 30.4023 10.1024 30.8001 10.2891 31.1581C10.4758 31.5161 10.7462 31.8238 11.0773 32.0548L43.5773 54.5548C43.9524 54.8143 44.3913 54.9663 44.8465 54.9943C45.3018 55.0222 45.756 54.9251 46.16 54.7135C46.564 54.5018 46.9024 54.1837 47.1386 53.7935C47.3747 53.4033 47.4997 52.9559 47.4998 52.4998V7.49983C47.4999 7.04349 47.3751 6.59583 47.1389 6.20538C46.9026 5.81492 46.5641 5.49657 46.1598 5.28483ZM42.4998 47.7273L16.8923 29.9998L42.4998 12.2723V47.7273Z" fill="#3D3D3D"/>
</svg>
