<svg width="75" height="85" viewBox="0 0 75 85" fill="none" xmlns="http://www.w3.org/2000/svg">
<g clip-path="url(#clip0_105_843)">
<path d="M20.317 49.8237L25.4241 75.8286L20.3426 77.1192L15.2356 51.1144L20.317 49.8237ZM66.0497 38.2077L67.1846 43.9865L62.1032 45.2772L66.0754 65.5032L60.9939 66.7939L57.0218 46.5679L51.9404 47.8585L50.8055 42.0797L66.0497 38.2077ZM36.9671 39.5275C40.5312 38.6449 44.2411 38.9096 47.6803 40.2919L50.5339 35.1685C45.8736 33.0091 40.7459 32.5139 35.8322 33.7486C30.9884 34.9903 26.5937 37.8847 23.2359 42.0444L27.7419 45.3077C30.2818 42.4387 33.4776 40.4363 36.9671 39.5275V39.5275Z" fill="white"/>
<path d="M34.6968 27.9708C40.9558 26.3965 47.4939 27.1498 53.3481 30.1196L56.1622 25.0668C49.1182 21.2821 41.1671 20.2707 33.5619 22.1919C26.0267 24.1173 19.2713 28.8456 14.365 35.6286L18.7995 38.8402C22.9344 33.3692 28.5086 29.5579 34.6968 27.9708V27.9708Z" fill="white"/>
<path d="M32.4274 16.4121C41.3788 14.1401 50.744 15.4107 58.9742 20.0137L61.7889 14.9639C52.4078 9.54848 41.6636 8.00854 31.3943 10.6075C21.125 13.2065 11.969 19.7828 5.49252 29.2115L9.92899 32.4196C15.6029 24.3208 23.5417 18.6725 32.4274 16.4121V16.4121ZM38.1019 45.3064C35.8407 45.8808 33.7799 47.2048 32.1803 49.1111C30.5807 51.0174 29.5141 53.4203 29.1154 56.016C28.7166 58.6117 29.0036 61.2836 29.9401 63.6937C30.8766 66.1039 32.4205 68.1441 34.3766 69.5564C36.3326 70.9687 38.613 71.6896 40.9294 71.628C43.2457 71.5664 45.494 70.725 47.3899 69.2102C49.2857 67.6955 50.7441 65.5754 51.5804 63.1181C52.4168 60.6607 52.5936 57.9765 52.0886 55.4049C51.4114 51.9564 49.5573 48.9551 46.9343 47.0613C44.3113 45.1675 41.1342 44.5362 38.1019 45.3064V45.3064ZM42.0741 65.5324C40.8178 65.8515 39.5066 65.7398 38.3061 65.2114C37.1057 64.683 36.07 63.7616 35.3301 62.5637C34.5901 61.3659 34.1791 59.9454 34.149 58.482C34.1189 57.0185 34.471 55.5777 35.1609 54.3418C35.8509 53.106 36.8475 52.1305 38.0249 51.5388C39.2023 50.9472 40.5075 50.7658 41.7755 51.0178C43.0435 51.2697 44.2174 51.9436 45.1486 52.9542C46.0798 53.9649 46.7266 55.2669 47.0072 56.6955C47.3834 58.6114 47.0751 60.6187 46.1499 62.2759C45.2248 63.9332 43.7587 65.1046 42.0741 65.5324V65.5324Z" fill="white"/>
</g>
<defs>
<clipPath id="clip0_105_843">
<rect width="62.9131" height="70.6709" fill="white" transform="matrix(0.969224 -0.246181 0.192707 0.981256 0.236328 15.4883)"/>
</clipPath>
</defs>
</svg>
