<svg width="75" height="85" viewBox="0 0 75 85" fill="none" xmlns="http://www.w3.org/2000/svg">
<g clip-path="url(#clip0_151_1122)">
<path d="M20.0807 49.8237L25.1877 75.8286L20.1063 77.1192L14.9993 51.1144L20.0807 49.8237ZM65.8134 38.2077L66.9483 43.9865L61.8669 45.2772L65.839 65.5032L60.7576 66.7939L56.7855 46.5679L51.7041 47.8585L50.5692 42.0797L65.8134 38.2077ZM36.7307 39.5275C40.2949 38.6449 44.0048 38.9096 47.4439 40.2919L50.2975 35.1685C45.6373 33.0091 40.5095 32.5139 35.5958 33.7486C30.7521 34.9903 26.3574 37.8847 22.9996 42.0444L27.5056 45.3077C30.0454 42.4387 33.2413 40.4363 36.7307 39.5275V39.5275Z" fill="white"/>
<path d="M34.4604 27.9708C40.7194 26.3965 47.2575 27.1498 53.1117 30.1196L55.9259 25.0668C48.8819 21.2821 40.9307 20.2707 33.3256 22.1919C25.7904 24.1173 19.035 28.8456 14.1287 35.6286L18.5632 38.8402C22.6981 33.3692 28.2723 29.5579 34.4604 27.9708V27.9708Z" fill="white"/>
<path d="M32.1911 16.4121C41.1425 14.1401 50.5077 15.4107 58.7379 20.0137L61.5526 14.9639C52.1715 9.54848 41.4272 8.00854 31.158 10.6075C20.8887 13.2065 11.7326 19.7828 5.25619 29.2115L9.69266 32.4196C15.3666 24.3208 23.3054 18.6725 32.1911 16.4121V16.4121ZM37.8656 45.3064C35.6043 45.8808 33.5436 47.2048 31.944 49.1111C30.3444 51.0174 29.2778 53.4203 28.879 56.016C28.4803 58.6117 28.7673 61.2836 29.7038 63.6937C30.6403 66.1039 32.1842 68.1441 34.1402 69.5564C36.0963 70.9687 38.3767 71.6896 40.6931 71.628C43.0094 71.5664 45.2577 70.725 47.1535 69.2102C49.0494 67.6955 50.5077 65.5754 51.3441 63.1181C52.1805 60.6607 52.3573 57.9765 51.8523 55.4049C51.175 51.9564 49.321 48.9551 46.698 47.0613C44.075 45.1675 40.8979 44.5362 37.8656 45.3064V45.3064ZM41.8377 65.5324C40.5815 65.8515 39.2702 65.7398 38.0698 65.2114C36.8694 64.683 35.8337 63.7616 35.0937 62.5637C34.3538 61.3659 33.9427 59.9454 33.9126 58.482C33.8825 57.0185 34.2347 55.5777 34.9246 54.3418C35.6145 53.106 36.6112 52.1305 37.7886 51.5388C38.966 50.9472 40.2712 50.7658 41.5392 51.0178C42.8072 51.2697 43.981 51.9436 44.9123 52.9542C45.8435 53.9649 46.4903 55.2669 46.7709 56.6955C47.1471 58.6114 46.8387 60.6187 45.9136 62.2759C44.9885 63.9332 43.5223 65.1046 41.8377 65.5324V65.5324Z" fill="white"/>
</g>
<defs>
<clipPath id="clip0_151_1122">
<rect width="62.9131" height="70.6709" fill="white" transform="matrix(0.969224 -0.246181 0.192707 0.981256 0 15.4883)"/>
</clipPath>
</defs>
</svg>
