<svg width="60" height="60" viewBox="0 0 60 60" fill="none" xmlns="http://www.w3.org/2000/svg">
<path d="M11.0773 32.0547L43.5773 54.5547C43.9524 54.8142 44.3913 54.9662 44.8465 54.9942C45.3018 55.0221 45.756 54.925 46.16 54.7134C46.564 54.5017 46.9024 54.1835 47.1386 53.7934C47.3747 53.4032 47.4997 52.9558 47.4998 52.4997V7.4997C47.5001 7.0434 47.3755 6.59571 47.1396 6.20516C46.9036 5.81461 46.5652 5.49609 46.1611 5.28413C45.757 5.07217 45.3026 4.97485 44.8472 5.00271C44.3917 5.03058 43.9526 5.18256 43.5773 5.4422L11.0773 27.9422C10.7462 28.1733 10.4758 28.4809 10.2891 28.8389C10.1024 29.1969 10.0049 29.5947 10.0049 29.9985C10.0049 30.4022 10.1024 30.8 10.2891 31.158C10.4758 31.516 10.7462 31.8236 11.0773 32.0547V32.0547Z" fill="#F0EFE7"/>
</svg>
