<svg width="45" height="49" viewBox="0 0 45 49" fill="none" xmlns="http://www.w3.org/2000/svg">
<g clip-path="url(#clip0_101_267)">
<path d="M27.5156 18.3018C26.5697 18.3018 25.8693 18.5636 25.321 18.8944C25.2331 18.5514 24.9443 18.3002 24.6039 18.3753H20.4408C20.0292 18.3002 19.6958 18.6662 19.8228 19.1409V35.9846C19.6958 36.4134 20.0292 36.7809 20.4408 36.7503H24.6039C25.0155 36.7809 25.3489 36.4134 25.3489 35.9617L25.3475 25.7819C25.3461 25.7773 25.3308 25.2904 25.6112 24.955C25.8358 24.6886 26.2223 24.5523 26.7566 24.5523C27.6467 24.5523 28.0429 24.952 28.1908 25.8462V35.9617C28.0443 36.4134 28.3778 36.7809 28.7893 36.7503H33.177C33.5886 36.7809 33.922 36.4134 33.7742 35.9617V25.5063C33.9206 20.1898 30.4705 18.3018 27.5156 18.3018ZM32.4306 35.219H29.5343V25.8462C29.5343 24.0378 28.4698 22.9169 26.758 22.9169C25.7898 22.9169 25.0364 23.2293 24.5174 23.8449C23.7961 24.7024 23.8519 25.7896 24.0068 26.0315V35.219H21.1858V19.9371H23.8589V20.4516C23.8578 20.6049 23.8961 20.7554 23.9695 20.8858C24.0428 21.0163 24.1482 21.1213 24.2735 21.189C24.3988 21.2566 24.539 21.2841 24.6779 21.2683C24.8168 21.2524 24.9488 21.1939 25.0587 21.0994L25.254 20.934C25.8191 20.4455 26.4036 19.9387 27.517 19.9387C28.6693 19.9387 32.432 20.3414 32.432 25.5078V35.219H32.4306Z" fill="white"/>
<path d="M15.6356 10.667C14.0702 10.667 12.7979 12.0635 12.7979 13.7816C12.7979 15.4996 14.0702 16.8961 15.6356 16.8961C17.2009 16.8961 18.4733 15.4996 18.4733 13.7816C18.4733 12.0635 17.2009 10.667 15.6356 10.667ZM15.6356 15.2607C14.8934 15.2607 14.2879 14.5962 14.2879 13.7816C14.2879 12.9669 14.8934 12.3024 15.6356 12.3024C16.3778 12.3024 16.9833 12.9669 16.9833 13.7816C16.9833 14.5962 16.3778 15.2607 15.6356 15.2607Z" fill="white"/>
<path d="M17.6277 18.2998H13.4869C13.0753 18.2998 12.7419 18.6658 12.8451 19.1405V35.9842C12.7419 36.413 13.0753 36.7805 13.4869 36.7498H17.6277C18.0392 36.7805 18.3727 36.413 18.3727 35.9612V19.1175C18.3727 18.9006 18.2942 18.6926 18.1545 18.5393C18.0147 18.386 17.8252 18.2998 17.6277 18.2998ZM17.0305 35.2186H14.2319V19.9367H17.0305V35.2186Z" fill="white"/>
<path d="M22.6114 -0.0517578C10.2755 -0.0517578 0.241699 10.961 0.241699 24.5003C0.241699 38.0396 10.2755 49.0524 22.6114 49.0524C34.9472 49.0524 44.981 38.0396 44.981 24.5003C44.981 10.961 34.9472 -0.0517578 22.6114 -0.0517578ZM22.6114 47.417C11.0987 47.417 1.73171 37.1362 1.73171 24.5003C1.73171 11.8644 11.0987 1.58362 22.6114 1.58362C34.124 1.58362 43.491 11.8644 43.491 24.5003C43.491 37.1362 34.124 47.417 22.6114 47.417Z" fill="white"/>
</g>
<defs>
<clipPath id="clip0_101_267">
<rect width="44.6444" height="49" fill="white" transform="translate(0.289062)"/>
</clipPath>
</defs>
</svg>
