<svg width="60" height="60" viewBox="0 0 60 60" fill="none" xmlns="http://www.w3.org/2000/svg">
<g clip-path="url(#clip0_105_942)">
<path d="M13.84 62.7142C14.2444 62.9245 14.6985 63.0208 15.1535 62.9926C15.6084 62.9644 16.0471 62.8128 16.4225 62.5542L48.9225 40.0542C49.2546 39.8241 49.526 39.5169 49.7134 39.159C49.9009 38.8012 49.9988 38.4032 49.9988 37.9992C49.9988 37.5951 49.9009 37.1972 49.7134 36.8393C49.526 36.4814 49.2546 36.1742 48.9225 35.9442L16.4225 13.4442C16.0474 13.1846 15.6085 13.0327 15.1533 13.0047C14.698 12.9767 14.2438 13.0738 13.8398 13.2855C13.4358 13.4972 13.0974 13.8153 12.8612 14.2055C12.6251 14.5957 12.5002 15.0431 12.5 15.4992V60.4992C12.4999 60.9555 12.6248 61.4032 12.861 61.7936C13.0972 62.1841 13.4358 62.5024 13.84 62.7142Z" fill="black"/>
</g>
<defs>
<clipPath id="clip0_105_942">
<rect width="60" height="60" fill="white"/>
</clipPath>
</defs>
</svg>
