<svg width="58" height="45" viewBox="0 0 58 45" fill="none" xmlns="http://www.w3.org/2000/svg">
<path fill-rule="evenodd" clip-rule="evenodd" d="M31.44 0H35.94L44.58 19.98H44.652L53.364 0H57.756V25.488H54.732V4.104H54.66L45.516 25.488H43.68L34.536 4.104H34.464V17.9998H34.556V33.7678C34.556 35.1598 34.376 36.4798 34.016 37.7278C33.68 38.9758 33.128 40.0798 32.36 41.0398C31.616 41.9758 30.632 42.7318 29.408 43.3078C28.184 43.8598 26.696 44.1358 24.944 44.1358C23.192 44.1358 21.704 43.8598 20.48 43.3078C19.256 42.7318 18.26 41.9758 17.492 41.0398C16.748 40.0798 16.196 38.9758 15.836 37.7278C15.5 36.4798 15.332 35.1598 15.332 33.7678V26.9977C14.6691 27.0899 13.9864 27.136 13.284 27.136C11.388 27.136 9.624 26.8 7.992 26.128C6.384 25.456 4.98 24.532 3.78 23.356C2.604 22.156 1.68 20.74 1.008 19.108C0.335999 17.476 0 15.688 0 13.744C0 11.8 0.335999 10.012 1.008 8.38002C1.68 6.74802 2.604 5.34402 3.78 4.16802C4.98 2.96802 6.384 2.03202 7.992 1.36002C9.624 0.688019 11.388 0.352019 13.284 0.352019C15.18 0.352019 16.932 0.688019 18.54 1.36002C20.172 2.03202 21.576 2.96802 22.752 4.16802C23.952 5.34402 24.888 6.74802 25.56 8.38002C26.232 10.012 26.568 11.8 26.568 13.744C26.568 15.688 26.232 17.476 25.56 19.108C24.888 20.74 23.952 22.156 22.752 23.356C21.576 24.532 20.172 25.456 18.54 26.128C18.4789 26.1536 18.4175 26.1786 18.356 26.2032V33.3358C18.356 34.3678 18.464 35.3638 18.68 36.3238C18.896 37.2838 19.256 38.1358 19.76 38.8798C20.264 39.6238 20.936 40.2238 21.776 40.6798C22.616 41.1118 23.672 41.3278 24.944 41.3278C26.216 41.3278 27.272 41.1118 28.112 40.6798C28.952 40.2238 29.624 39.6238 30.128 38.8798C30.632 38.1358 30.992 37.2838 31.208 36.3238C31.424 35.3638 31.532 34.3678 31.532 33.3358V25.488H31.44V0ZM18.356 23.5162C19.3585 22.964 20.2238 22.2746 20.952 21.448C21.864 20.44 22.56 19.276 23.04 17.956C23.52 16.612 23.76 15.208 23.76 13.744C23.76 12.28 23.52 10.888 23.04 9.56802C22.56 8.22402 21.864 7.04802 20.952 6.04002C20.064 5.03202 18.972 4.22802 17.676 3.62802C16.38 3.02802 14.916 2.72802 13.284 2.72802C11.652 2.72802 10.188 3.02802 8.892 3.62802C7.596 4.22802 6.492 5.03202 5.58 6.04002C4.692 7.04802 4.008 8.22402 3.528 9.56802C3.048 10.888 2.808 12.28 2.808 13.744C2.808 15.208 3.048 16.612 3.528 17.956C4.008 19.276 4.692 20.44 5.58 21.448C6.492 22.456 7.596 23.26 8.892 23.86C10.188 24.46 11.652 24.76 13.284 24.76C13.9989 24.76 14.6816 24.7025 15.332 24.5873V17.9998H18.356V23.5162Z" fill="black"/>
</svg>
